<?xml version="1.0" encoding="UTF-8"?>
<svg id="Layer_1" data-name="Layer 1" xmlns="http://www.w3.org/2000/svg" viewBox="0 0 981.67 934.93">
  <defs>
    <style>
      .cls-1 {
        fill: #1d1d1b;
      }
    </style>
  </defs>
  <path class="cls-1" d="M435.47,648.56H192.03v-44.7c-3.69,1.34-7.54,2.44-11.59,3.27v53.02h254.71c-.15-3.9-.03-7.77,.33-11.58"/>
  <path class="cls-1" d="M192.03,450.17V192.2h456.35v144.94c3.63-2.02,7.5-3.69,11.59-5.03V180.61H180.44V450.11c.94-.01,1.87-.06,2.83-.06,3.06,0,5.95,.04,8.77,.11"/>
  <path class="cls-1" d="M209.98,579.01c.57,3.74,1.14,6.48,1.71,8.23,.57,1.75,1.79,4.29,3.66,7.62h46.58c-2.6-5.36-4.29-9.78-5.06-13.23-.77-3.45-1.16-8.23-1.16-14.33v-57.2c0-6.1-1.22-12.5-3.66-19.21-2.44-6.71-5.77-11.89-10-15.55-6.02-5.28-13.54-8.76-22.56-10.43-9.03-1.66-20.98-2.5-35.85-2.5-9.27,0-17.89,.69-25.85,2.07-7.97,1.38-14.23,3.33-18.78,5.85-6.34,3.5-11.2,7.62-14.57,12.38-3.38,4.76-5.96,11.28-7.74,19.57l47.44,5c1.95-5.61,4.51-9.43,7.68-11.46,4.06-2.6,10.16-3.9,18.29-3.9,6.34,0,10.77,1.22,13.29,3.65,2.52,2.44,3.78,6.71,3.78,12.81-6.18,2.44-12.04,4.41-17.56,5.91-5.53,1.51-17.6,4.13-36.22,7.87-15.53,3.09-26.18,7.8-31.95,14.15-5.77,6.34-8.66,14.43-8.66,24.27,0,10.49,4,19.31,12.01,26.46,8.01,7.15,19.74,10.73,35.19,10.73,11.62,0,21.83-1.79,30.61-5.37,6.42-2.68,12.88-7.15,19.39-13.41m-43.35-12.5c-2.73-2.48-4.09-5.67-4.09-9.57,0-3.41,1.38-6.46,4.15-9.14,2.68-2.6,9.06-5.25,19.15-7.93,7.4-1.87,14.51-4.03,21.34-6.47v7.93c0,6.18-1,11.2-2.99,15.06-1.99,3.87-5.37,7.13-10.12,9.82-4.76,2.69-9.9,4.03-15.43,4.03s-9.29-1.24-12.01-3.72"/>
  <rect class="cls-1" x="287.62" y="415.04" width="49.76" height="178.78"/>
  <path class="cls-1" d="M384.11,577.85c2.8,6.46,7.13,11.27,12.99,14.43,5.85,3.17,14.96,4.75,27.32,4.75,10.65,0,22.11-1.35,34.39-4.03l-3.66-34.26c-6.59,2.11-11.71,3.17-15.37,3.17-4.06,0-6.91-1.38-8.53-4.14-1.06-1.79-1.59-5.43-1.59-10.95v-45.88h27.32v-36.34h-27.32v-49.27l-49.76,25.49v23.78h-18.29v36.34h18.29v45.55c0,14.45,1.4,24.91,4.21,31.36"/>
  <path class="cls-1" d="M619.84,622.63c-3.41-2.7-6.17-1.71-6.17-1.71-.35,1.56,1.97,4.37,3.63,8.68,1.66,4.3,5.13,6.39,6.1,2.02s-1.44-7.3-3.56-8.99"/>
  <path class="cls-1" d="M587.94,618.45c.09-.05,.18-.11,.28-.16,1.85-1.04,3.7-1.44,5.02-1.71,1.34-.28,2.14-.44,1.81-1.02-.24-.42-.99-.86-2.02-1.14-1.46-.4-3.48-.47-5.46,.24-.43,.16-.87,.34-1.29,.58-3.73,2.1-5.67,5.03-5.03,6.19,.63,1.12,3.11-.93,6.69-2.97"/>
  <path class="cls-1" d="M606.55,630.27c-.08-.93-.37-1.82-1.01-2.65,1.93-.14,3.32-.74,3.59-1.77,.47-1.8-2.62-4.14-6.9-5.25-4.07-1.05-7.71-.58-8.45,1.02-.04,.08-.1,.15-.12,.24-.12,.45,.02,.94,.32,1.43,.24,.39,.57,.78,1.01,1.15-.02,0-.04,.01-.06,.02-.27,.08-.51,.22-.76,.35-.44,.23-.86,.51-1.23,.86-1.03-.02-2.53,0-4.14,.16-2.45,.25-5.16,.84-6.89,2.19,2.86-.3,5.31-.2,7.19,0,.74,.08,1.41,.16,1.96,.26-.09,.18-.17,.38-.25,.57-.4,.08-.94,.22-1.53,.37-2.75,.71-7.14,2.17-9.11,4.72,4.17-1.52,7.68-1.92,9.52-2.03,.02,0,.06,0,.08,0-.02,.07-.03,.14-.05,.21-.06,.21-.11,.43-.16,.64-2.08,.83-7.81,3.39-9.66,6.88,4.02-2.32,7.52-3.31,9.24-3.69-.07,2.13,.4,3.84,1.24,5.14-1.15,.24-2.01,.8-2.31,1.65-.61,1.75,1.35,4.03,4.39,5.09,.19,.07,.37,.07,.56,.13,2.32,.66,4.44,.39,5.47-.64,.22-.22,.48-.43,.58-.73,.3-.84-.02-1.8-.75-2.7,1.85-.47,3.63-1.6,5.03-3.33,.99,1.1,3.47,4.15,5.48,8.87,.67-4.22-2.95-10.29-3.84-11.69,.09-.22,.17-.46,.25-.69,1.27,1.02,4.12,3.57,6.79,7.67-.07-4.35-4.86-9.81-5.86-10.9,.03-.12,.06-.26,.09-.38,1.67,.82,4.71,2.55,7.91,5.52-.98-3.64-5.59-7.22-7.61-8.65"/>
  <path class="cls-1" d="M886.83,724c-12.75-6.61-23.74-.99-20.48-30.65,2.34-21.25-9.63-37.68-25.84-48.39-17.16-11.35-38.72-13.85-57.6-21.25-3.05-1.2-6.07-2.5-9.08-3.85-13.91-6.26-28.46-15.55-39.43-26.21-.07-.06-.14-.13-.21-.19-3.25-3.17-6.35-6.52-9.42-9.99-2.08-33.14,8.92-67.54,10.18-95.55,.45-9.96-.33-20.13-1.89-29.96-3.2-20.16-17.52-44.08-3.55-62.65,1.63-2.16,3.46-3.62,5.88-5.94,7.41-7.08,14.43-16.15,15.58-26.65,.27-2.45,.23-4.44,.38-5.88,1.99-2.24,3.17-5.66,2.8-8.61-.19-1.47-.76-2.83-1.81-3.86-1.05-1.03-2.58-1.73-4.69-1.9,.19,.58,.33,1.19,.39,1.82,.05,.63,.02,1.29-.11,1.96-.21,1.01-.66,2.05-1.44,3.12-.26,.35-.56,.71-.89,1.07,.07-.37,.1-.74,.09-1.09,0-.36-.05-.71-.12-1.05-.22-1.03-.73-1.99-1.4-2.88-.64-.85-1.43-1.62-2.26-2.32-.03-.03-.07-.06-.1-.09-3.29,.53-6.59,.73-10.26,.67-2.2-.04-4.54-.17-7.09-.38-5.09-.42-11.03-1.15-18.44-2.05-12.6-1.54-25.41-2.51-37.88,.5-17.69,4.26-31.69,16.23-37.6,33.7-4.28,12.65-5.11,26.04-7.94,39.02-1.74,7.94-8.11,19.34-21.74,35.81-13.97,2.69-30.49,.25-35.15-.48-1.55-.24-3.09-.54-4.57-.88-.47,.49-.92,1.01-1.31,1.55-.79,1.1-1.37,2.3-1.49,3.56-.06,.63-.01,1.27,.18,1.92-2.88-2.51-3.17-5.19-2.54-7.47,.09-.33,.2-.65,.32-.95-.17-.06-.35-.11-.51-.17-1.79-.65-3.19-.71-4.26-.37-1.07,.35-1.81,1.11-2.27,2.14-.2,.44-.36,.88-.49,1.32-.12,.44-.21,.87-.26,1.29-.1,.85-.08,1.69,.07,2.5,.07,.41,.17,.81,.29,1.2,.19,.59,.44,1.16,.73,1.73,.22,.43,.46,.85,.72,1.26,.15,.23,.3,.46,.46,.68,1.96,2.76,5.97,8.42,18.24,13.58-3.58,.63-10.9-.56-19.12-7.48-10.01,13.56,16.06,29.41,25.29,36.35,.81,15.03-8.82,27.15-16.57,34.12-13.88,12.49-31.84,21.04-47.22,31.56-20.33,13.9-38.92,29.31-52.91,49.79-2.47,3.62-4.52,7.4-6.19,11.31-4.99,11.71-6.49,24.45-5.2,36.75,1.69,16.04,6.1,34.35-10.78,44.17-6.59,3.83-43.09,13.27-53.31,40.86,25.55-13.8,40.49-5.23,59.79-9.2,17.37-3.58,27.08-16.35,25.85-30.66,1.08,15.33,7.66,29.58,22.72,35.45,7.91,3.08,16.59,3.77,24.98,2.94,7.57-.74,15.25-4.02,22.91-2.6,16.25,3.01,31.6,7.33,47.94,2.94,5.14-1.38,9.58-2.74,13.78-4.21,7.42,2.58,14.79,4.7,21.94,6.3,11.1,2.48,22.01,3.79,32.42,3.91,12.72,.14,24.74-1.49,35.72-4.82,5.27-1.6,10.22-3.67,14.93-6,6.33,1.28,12.77,2.05,19.22,2.44,.19,.01,.45,.02,.78,.02,.79,0,1.98-.01,3.34-.07,3.03,1.35,6.84,2.88,10.92,2.93,4.66,.05,8.57-1.86,11.35-5.53,2.52-3.35,3.1-7.4,1.59-11.08-.37-.91-.86-1.78-1.47-2.6-.1-1.93-.45-3.8-1.15-5.55,16.83,2.37,34.36-.17,47.43-3.48-5.67,15.08-26.88,20.1-41.18,17.38,11.77,11.1,29.06,13.09,44.27,9.36,8.45-2.07,16.46-5.91,23.2-11.43,5.52-4.52,10.84-11.24,18.86-8.96,4.74,1.35,6.87,5.49,10.13,8.73,3.99,3.97,8.85,6.87,14.17,8.68,14.94,5.08,29.64-2.04,45.48,5.12-5.11-11.25-13.33-19.49-26.08-26.1m-259.57-302.99c5.1-10.34,7.7-21.97,10.54-30.65,.28-.85,.61-1.68,.91-2.53,4.4,1.73,9.96-1.4,12.56-7.19,2.24-5,1.54-10.31-1.39-13.06,10.43-13.3,25.5-22.16,43.69-20.17,17.6,1.93,26.02,2.05,45.93-1.02-6.34,7.37-18.32,8.23-26.13,6.97,2.1,1.77,3.08,3.71,3.08,3.71,0,0-6.67,15.9-24.04,6.48,7.4,2.01,13.56,2.75,19.66-7.7-7.44-6.36-17.57-2.99-19.81,.25-2.95,4.26-7.02,5.63-12.89,11.76-5.88,6.13-8.08,17.81-8.08,17.81,0,0-2.39-4.53,1.66-14.93-7.12,6.06-11.95,12.61-15.63,20.59-4.83,10.46-6.82,38.36,7.17,63.23-8.11-7.15-15.3-18.95-16.29-35.77-9.23,24.66,12.57,49.21,22.64,69.92,10.06,20.71,12.85,32.01,16.71,41.15,6.89,16.32,11.75,25.04,20.83,36.63-17.51-10.82-29.2-46.71-36.58-62.42-.52-1.1-1.04-2.22-1.58-3.35-5.65-12.03-11.92-24.77-21.81-33.93-1.58-1.46-3.2-2.81-4.89-4.03-7.17-5.23-17.82-12.61-36.89-12.27,5.53-6.98,11.41-10.81,20.61-29.47m72.79-62.66c.31,1.22,1.08,2.02,2.06,2.39-.15,.1-.26,.24-.42,.33-2.13,1.24-4.21,.84-4.65-.9-.44-1.74,.93-4.16,3.06-5.4,.13-.08,.26-.09,.39-.15-.53,1.24-.74,2.57-.44,3.74m-197.43,310.14c-14.14,5.81-25.64,14.1-34.29,26.92,1.33-1.96-8.67-26.97-9.13-31.35-5.81-54.93,45.52-80.75,84.25-105.6,27.08-17.37,38.32-34.24,35.43-52.67,12.1,11.79,18.22,27.95,15.21,50.34-3.8,28.22-.05,38.1-.05,38.1,0,0-21.12,4.77-32.81,36.46-9.24,19.59-21.1,24.35-30.55,27.67,6.64-5.62,10.73-13.54,11.76-19.39-12.78,14.53-24.29,23.14-39.81,29.51m123.3,73.72c-5.76-1.23-11.77-2.81-18.07-4.86-.71-.23-1.4-.43-2.12-.68,2.64-1.07,5.32-2.23,8.18-3.56,3.9-1.8,6.66-6.32,8.57-11.29,1.43-3.73,2.36-7.7,2.91-10.99,.17-1.02,.31-1.97,.41-2.83,.31-2.63,.31-4.38,.07-4.35-.17,.01-.55,.82-1.1,2.14-.44,1.04-1,2.42-1.66,3.98-1.66,3.92-3.99,8.99-6.85,13.13-2.05,2.96-4.35,5.45-6.89,6.62-8.57,3.97-12.99,7.05-21.56,9.72-.95,.3-1.92,.59-2.98,.88-10.18,2.74-15.75,2.51-23.5,.58-.15-.04-.3-.08-.45-.12-.63-.16-1.24-.31-1.9-.49-2.97-.81-5.37-1.32-7.43-1.66-2.04-.34-3.75-.53-5.35-.7-2.18-.23-4.24-.45-6.84-1.03-1.78-.4-2.87-1.05-3.23-1.92-.33-.8-.16-2,.44-3.55,.55-1.41,1.46-3.11,2.77-5.12,4.42-6.78,14.56-6.35,21.89-3.93,9.39,3.1,15.3,.73,18.67-3.25,.34-.4,.69-.82,1.06-1.24,4.41-4.92,3.15-10.67,1.73-17.47-.74-3.55-1.51-7.38-1.55-11.53-.01-.98,0-1.97,.09-2.99-.37-.15-1.26,1.11-2.06,3.32-.95,2.59-1.73,6.52-1.43,11.26,.03,.4,.01,.78,.06,1.19l.17,1.65c.78,7.48,.8,7.62-2.46,11.34-.38,.44-.74,.87-1.1,1.28-.11,.13-.21,.25-.31,.37-1.12-.79-4.26-3.39-7.2-9.27-.03-.23-.1-.46-.23-.67-.09-.15-.2-.28-.29-.42-.59-1.28-1.16-2.71-1.71-4.27-.95-2.75-1.81-5.96-2.47-9.71-.35-1.99-.64-4.12-.86-6.41-.71-7.37-.65-14.33,.08-21.14,1.27-11.88,4.77-23.28,10.85-35.32,.23-.45,.49-.91,.73-1.36,.97-1.87,1.93-3.74,3.03-5.66,2.82-4.92,5.97-8.43,9.24-10.99,1.69-1.33,3.41-2.4,5.13-3.23,1.78-.85,3.56-1.48,5.31-1.9,2.51-.6,4.94-.8,7.21-.75,5.33,.11,9.77,1.55,12.04,2.47,13.88,5.62,20.46,17.05,17.17,29.83-.81,3.16-1.74,6.1-2.64,8.95-3.75,11.88-4.77,20.74,6.66,28.35,4.96,3.29,10.02,4.35,19.25,7.52,5.11,25.04-10.87,51.16-29.45,60.08m118.35-3.79c-.39,.52-.84,.88-1.32,1.18-2.6,1.61-6.43,.16-11.04-1.94-.8-.36-1.55-.7-2.25-.99-2.04-.84-3.74-1.44-5.29-1.89-3.08-.9-5.5-1.15-8.41-1.2,1.87-1.29,2.71-2.91,3-4.28,.28-1.34,.05-2.44-.27-2.76-.06-.06-.52,.25-1.34,.82-2.18,1.52-7.03,4.93-14.51,8.41-3.21,1.49-6.9,2.98-11.08,4.35-6.28,2.05-18.25,3.73-30.67,4.61,23.15-6.77,37.15-28.73,43-35.34,9.88,1.02,16.11,9.11,18.71,11,3.01,2.18,6.15,3.46,12.27,4.5,6.42,1.09,7.36,2.48,7.5,5.41-2.3-1.16-7.72-2.07-10.27-.6,5.85,.38,11.53,4.47,12.4,6.61,.19,.47,.32,1.13-.42,2.11m25.53-80.28c-12.38-.75-20.23-4.46-26.38-9.33-5.04-3.98-8.94-8.73-13.21-13.26-3.66-3.89-9.34-6.51-12.37-.68-2.65,5.11-.19,10.92,.3,16.21,.84,9.22-3.57,18.1-8.5,25.6-1.49,2.27-3.81,6.09-6.82,10.73,2.35-8.1,4.44-18.01,5.18-29.3-4.92,17.93-14.91,38.48-22.66,52.94-10.9,12.54-24.43,23.85-39.13,25.46,12.55-13.71,16.99-28.61,18.93-40.27-1.29-11.31-2.93-38.24,7.81-55.58-2.13,6.44-2.79,14.65-2.68,22.86,.84-2.93,1.8-5.82,3.1-8.58,4.15-8.83,11.48-14.52,18.14-21.36,6.72-6.9,1.97-14.62-5.53-18.28-11.31-5.52-36.23-30.77-43.39-76.25-3.01,12.75-2,28.58-.24,38.08-12.18-24.91-5.33-54.47-9.19-81.21-2.17-15.01-9.74-26.41-24.89-30.35-3.44-.9-6.98-1.41-10.52-1.71-.19-.02-.35-.05-.55-.06-2.06,.66-4.32,1.85-6.02,4.15,.93,1.48,2.04,2.61,3.23,3.49,1.23,.9,2.56,1.54,3.89,1.96,1.02-.64,1.78-1.67,1.99-3.11,.23-1.56-.21-3.24-1.05-4.77,.18,.07,.34,.07,.52,.15,2.9,1.33,4.98,4.27,4.63,6.57-.14,.94-.74,1.55-1.51,1.95,3.47,.15,6.19-.61,6.19-.61,0,0-7.84,4.63-12.83,2.14-.94-.47-1.87-.98-2.77-1.48-2.97-1.67-5.52-3.35-6.57-4.06-.32-.22-.54-.37-.54-.37,0,0,.81-2.09,2.8-3.99,.9-.85,2-1.67,3.42-2.24,.05-.02,.1-.03,.16-.05-.21,0-.39-.03-.6-.03-.58-.02-1.1-.06-1.66-.09-17.62-.96-20.36-8.13-20.36-8.13,6.63,2.53,15.06,2.33,24.48,1.87,2.53-.12,5.12-.25,7.77-.36,1.4-.06,2.81-.12,4.24-.15,13.88-.33,25.68,5.07,36.18,18.51-.48,.17-.93,.4-1.33,.73-3.05,2.5-2.2,8.56,1.89,13.54,.09,.11,.19,.19,.27,.3,1.79,2.09,3.86,3.61,5.88,4.45,2.28,.95,4.5,1.06,6.14,.12,.3,.53,.6,1.08,.91,1.63,3.87,6.96,7.69,14.72,13.04,25.24,6.87,13.5,12.55,27.72,21,40.36,9.2,13.77,23.93,22.89,36.74,33.29,12.27,9.97,22.81,20.58,36.34,29.07,18.81,11.8,41.38,9.86,60.03,24.35-26.82,2.22-37.02,10.93-53.93,9.91"/>
  <path class="cls-1" d="M228.19,268.48v119.49h28.41v-12.8c3.93,5.38,7.55,9.05,10.88,11,4.42,2.5,9.29,3.75,14.61,3.75,6.21,0,11.87-1.78,16.96-5.34,5.1-3.56,9.08-8.94,11.97-16.14,2.88-7.2,4.32-15.53,4.32-24.98,0-14.18-3.16-25.06-9.47-32.64-6.31-7.58-14.29-11.37-23.93-11.37-4.67,0-8.94,.87-12.79,2.61-3.85,1.74-7.3,4.35-10.33,7.82v-41.41h-30.64Zm34.33,60.76c2.61-3.34,5.98-5.01,10.1-5.01,3.43,0,6.35,1.6,8.76,4.81,2.41,3.21,3.61,8.23,3.61,15.08,0,7.77-1.23,13.3-3.69,16.59-2.46,3.29-5.51,4.93-9.13,4.93-3.93,0-7.17-1.67-9.73-5.01-2.56-3.34-3.84-8.73-3.84-16.18,0-6.79,1.31-11.86,3.91-15.2"/>
  <path class="cls-1" d="M373.89,386.19c3.91-1.79,7.85-4.76,11.82-8.94,.34,2.49,.69,4.32,1.04,5.49,.35,1.17,1.09,2.86,2.23,5.08h28.4c-1.59-3.58-2.61-6.52-3.09-8.82-.47-2.3-.71-5.48-.71-9.55v-38.12c0-4.06-.74-8.33-2.23-12.8-1.49-4.47-3.52-7.93-6.1-10.36-3.67-3.52-8.25-5.84-13.75-6.95-5.5-1.11-12.79-1.67-21.86-1.67-5.65,0-10.9,.46-15.76,1.38-4.86,.92-8.67,2.22-11.45,3.9-3.87,2.33-6.83,5.08-8.89,8.25-2.06,3.17-3.63,7.51-4.72,13.04l28.92,3.33c1.19-3.74,2.75-6.28,4.69-7.64,2.48-1.73,6.19-2.6,11.15-2.6,3.86,0,6.57,.81,8.11,2.44,1.54,1.63,2.3,4.47,2.3,8.54-3.77,1.63-7.34,2.94-10.71,3.94-3.37,1-10.73,2.75-22.08,5.24-9.47,2.06-15.96,5.2-19.48,9.43-3.52,4.23-5.28,9.62-5.28,16.17,0,6.99,2.44,12.87,7.32,17.64,4.88,4.77,12.03,7.15,21.45,7.15,7.09,0,13.31-1.19,18.66-3.58m-14.57-29.74c1.64-1.73,5.52-3.49,11.67-5.28,4.51-1.25,8.85-2.68,13.01-4.31v5.28c0,4.12-.61,7.47-1.82,10.04-1.21,2.57-3.27,4.76-6.17,6.54-2.9,1.79-6.03,2.68-9.4,2.68s-5.66-.83-7.32-2.48c-1.66-1.65-2.49-3.78-2.49-6.38,0-2.27,.84-4.31,2.53-6.09"/>
  <path class="cls-1" d="M493.17,385.73c5.94-2.8,10.3-6.56,13.06-11.29,2.76-4.73,4.14-9.59,4.14-14.59s-1.31-9.48-3.92-13.61c-2.61-4.13-6.38-7.31-11.31-9.53-4.92-2.23-12.44-3.97-22.54-5.22-6.67-.87-11-1.84-12.98-2.93-1.99-1.09-2.98-2.69-2.98-4.81,0-1.9,.78-3.51,2.35-4.85,1.57-1.33,4.07-1.99,7.5-1.99s6.27,.87,8.66,2.61c1.74,1.3,2.98,3.34,3.73,6.12l28.81-3.1c-1.99-5.65-4.49-10.14-7.5-13.46-3.01-3.32-6.77-5.76-11.27-7.34-4.51-1.58-11.48-2.37-20.93-2.37-8.95,0-16.09,1.02-21.42,3.06-5.32,2.04-9.5,5.12-12.54,9.25-3.03,4.13-4.55,9.05-4.55,14.75,0,5.21,1.41,9.86,4.22,13.93,2.81,4.08,6.27,6.97,10.37,8.68,4.1,1.71,11.43,3.57,21.98,5.58,7.06,1.36,11.42,2.5,13.06,3.42,2.29,1.3,3.43,3.15,3.43,5.54,0,2.12-.87,3.88-2.61,5.3-2.24,1.9-5.4,2.85-9.47,2.85-3.73,0-6.72-.84-8.96-2.53-2.24-1.68-3.98-4.49-5.22-8.4l-30.15,3.1c1.74,8.32,5.68,14.74,11.83,19.25,6.15,4.52,16.45,6.77,30.93,6.77,10.25,0,18.34-1.4,24.29-4.2"/>
  <path class="cls-1" d="M613.24,349.14c0-11.42-1.72-20.69-5.15-27.82-3.43-7.12-8.43-12.56-15-16.31-6.57-3.75-15.52-5.63-26.87-5.63-13.98,0-24.94,4.19-32.87,12.57-7.94,8.37-11.9,19.33-11.9,32.88,0,9.52,1.97,17.8,5.93,24.84,3.95,7.04,8.94,12.18,14.96,15.42,6.02,3.24,14.28,4.85,24.77,4.85,12.09,0,21.37-1.89,27.84-5.67,6.47-3.78,11.99-10.02,16.56-18.72l-29.92-3.02c-1.89,2.61-3.66,4.43-5.3,5.46-2.69,1.63-5.52,2.45-8.51,2.45-4.73,0-8.56-1.88-11.49-5.63-2.09-2.61-3.41-6.58-3.95-11.91h60.89v-3.75Zm-60.82-12.16c.5-5.17,1.67-9.06,3.51-11.67,2.88-4.19,6.74-6.28,11.57-6.28,4.18,0,7.55,1.38,10.11,4.16,2.56,2.78,4.14,7.37,4.74,13.79h-29.93Z"/>
</svg>