<svg width="25" height="25" viewBox="0 0 25 25" fill="none" xmlns="http://www.w3.org/2000/svg">
<path d="M20.5563 8.40625C20.9313 9.71875 20.9313 12.5312 20.9313 12.5312C20.9313 12.5312 20.9313 15.3125 20.5563 16.6562C20.3688 17.4062 19.775 17.9688 19.0563 18.1562C17.7125 18.5 12.4 18.5 12.4 18.5C12.4 18.5 7.05625 18.5 5.7125 18.1562C4.99375 17.9688 4.4 17.4062 4.2125 16.6562C3.8375 15.3125 3.8375 12.5312 3.8375 12.5312C3.8375 12.5312 3.8375 9.71875 4.2125 8.40625C4.4 7.65625 4.99375 7.0625 5.7125 6.875C7.05625 6.5 12.4 6.5 12.4 6.5C12.4 6.5 17.7125 6.5 19.0563 6.875C19.775 7.0625 20.3688 7.65625 20.5563 8.40625ZM10.65 15.0625L15.0875 12.5312L10.65 10V15.0625Z" fill="white"/>
</svg>
