<svg width="36" height="36" viewBox="0 0 36 36" fill="none" xmlns="http://www.w3.org/2000/svg">
<path d="M16.9669 23.088C16.9669 24.3847 15.9299 25.4269 14.6397 25.4269C13.3495 25.4269 12.3125 24.3847 12.3125 23.088C12.3125 21.7913 13.3495 20.7491 14.6397 20.7491C15.9178 20.737 16.9669 21.7913 16.9669 23.088Z" fill="#BBC2CF"/>
<path d="M20.0788 24.275C20.0788 24.9173 20.5973 25.4506 21.2484 25.4506C21.8875 25.4506 22.4181 24.9295 22.4181 24.275C22.4181 19.3185 18.4028 15.2588 13.447 15.2588C12.8079 15.2588 12.2773 15.7799 12.2773 16.4343C12.2773 17.0766 12.7958 17.6098 13.447 17.6098C17.1126 17.6098 20.0788 20.6031 20.0788 24.275Z" fill="#BBC2CF"/>
<path d="M25.5528 25.4513C26.1919 25.4513 26.7224 24.9302 26.7224 24.2758C26.7224 16.9319 20.7778 10.9453 13.4587 10.9453C12.8196 10.9453 12.2891 11.4664 12.2891 12.1208C12.2891 12.7631 12.8076 13.2963 13.4587 13.2963C19.4876 13.2963 24.3952 18.2286 24.3952 24.2879C24.3832 24.9181 24.9017 25.4513 25.5528 25.4513Z" fill="#BBC2CF"/>
<path d="M18.355 35.897C13.7006 35.897 9.33568 34.0792 6.04386 30.7708C2.75204 27.4625 0.943359 23.0755 0.943359 18.3977C0.943359 13.7199 2.75204 9.333 6.04386 6.02462C9.33568 2.71623 13.7006 0.898438 18.355 0.898438C23.0094 0.898438 27.3743 2.71623 30.6662 6.02462C33.958 9.333 35.7667 13.7199 35.7667 18.3977C35.7667 23.0755 33.958 27.4625 30.6662 30.7708C27.3864 34.0792 23.0094 35.897 18.355 35.897ZM18.355 2.32844C9.54065 2.32844 2.36619 9.53902 2.36619 18.3977C2.36619 27.2564 9.54065 34.467 18.355 34.467C27.1693 34.467 34.3438 27.2564 34.3438 18.3977C34.3438 9.53902 27.1693 2.32844 18.355 2.32844Z" fill="#BBC2CF"/>
</svg>
