<svg width="35" height="35" viewBox="0 0 35 35" fill="none" xmlns="http://www.w3.org/2000/svg">
<path d="M17.4116 34.9986C12.7573 34.9986 8.39232 33.1808 5.1005 29.8724C1.80868 26.564 0 22.1771 0 17.4993C0 12.8215 1.80868 8.43456 5.1005 5.12618C8.39232 1.81779 12.7573 0 17.4116 0C22.066 0 26.431 1.81779 29.7228 5.12618C33.0146 8.43456 34.8233 12.8215 34.8233 17.4993C34.8233 22.1771 33.0146 26.564 29.7228 29.8724C26.443 33.1808 22.066 34.9986 17.4116 34.9986ZM17.4116 1.43C8.59729 1.43 1.42283 8.64058 1.42283 17.4993C1.42283 26.358 8.59729 33.5686 17.4116 33.5686C26.226 33.5686 33.4005 26.358 33.4005 17.4993C33.4005 8.64058 26.226 1.43 17.4116 1.43Z" fill="#BBC2CF"/>
<path d="M24.7115 11.1841C20.4319 8.27587 13.5797 8.27587 9.30016 11.1841C4.53119 14.4044 5.02064 19.8214 10.2163 22.6173C9.89 23.2913 9.24996 24.3647 8.20832 25.0013C8.04517 25.1261 7.96987 25.3258 7.96987 25.4756C8.00752 25.6753 8.13302 25.8375 8.33381 25.875C8.37146 25.875 8.89856 25.9998 9.65156 25.9998C10.9316 25.9998 12.8141 25.6378 14.4582 23.9653C17.8592 24.527 21.7873 23.9653 24.7115 22.0182C29.0788 19.06 29.1165 14.1298 24.7115 11.1841ZM24.1467 21.2193C21.3857 23.0916 17.5831 23.5659 14.3829 22.9668C14.2197 22.9293 14.0189 23.0042 13.9436 23.129C12.538 24.6768 10.9065 25.0013 9.7394 25.0387C10.5802 24.165 11.0948 23.1665 11.3458 22.5674C11.4211 22.3302 11.3458 22.0556 11.1073 21.9308C8.53461 20.6951 7.01607 18.7105 7.01607 16.6011C7.01607 14.8911 8.02007 13.2186 9.8649 11.9829C13.793 9.31185 20.2311 9.31185 24.1593 11.9829C26.0041 13.2186 27.0081 14.8537 27.0081 16.6011C26.9955 18.3111 25.9915 19.9837 24.1467 21.2193Z" fill="#BBC2CF"/>
<path d="M19.7415 14.9658C19.0638 14.9658 18.499 15.5275 18.499 16.2015C18.499 16.8755 19.0638 17.4372 19.7415 17.4372C20.4192 17.4372 20.9839 16.8755 20.9839 16.2015C20.9839 15.515 20.4317 14.9658 19.7415 14.9658ZM19.7415 16.4761C19.616 16.4761 19.503 16.3513 19.503 16.2389C19.503 16.1141 19.6285 16.0018 19.7415 16.0018C19.867 16.0018 19.9799 16.1266 19.9799 16.2389C19.9925 16.3513 19.867 16.4761 19.7415 16.4761Z" fill="#BBC2CF"/>
<path d="M16.7424 14.9658C16.0647 14.9658 15.5 15.5275 15.5 16.2015C15.5 16.8755 16.0647 17.4372 16.7424 17.4372C17.4201 17.4372 17.9849 16.8755 17.9849 16.2015C17.9849 15.515 17.4201 14.9658 16.7424 14.9658ZM16.7424 16.4761C16.6169 16.4761 16.504 16.3513 16.504 16.2389C16.504 16.1141 16.6295 16.0018 16.7424 16.0018C16.8679 16.0018 16.9809 16.1266 16.9809 16.2389C16.9809 16.3513 16.8679 16.4761 16.7424 16.4761Z" fill="#BBC2CF"/>
<path d="M13.7434 14.9658C13.0657 14.9658 12.501 15.5275 12.501 16.2015C12.501 16.8755 13.0657 17.4372 13.7434 17.4372C14.4211 17.4372 14.9859 16.8755 14.9859 16.2015C14.9859 15.515 14.4211 14.9658 13.7434 14.9658ZM13.7434 16.4761C13.6179 16.4761 13.505 16.3513 13.505 16.2389C13.505 16.1141 13.6305 16.0018 13.7434 16.0018C13.8689 16.0018 13.9819 16.1266 13.9819 16.2389C13.9819 16.3513 13.8564 16.4761 13.7434 16.4761Z" fill="#BBC2CF"/>
</svg>
