<svg width="36" height="36" viewBox="0 0 36 36" fill="none" xmlns="http://www.w3.org/2000/svg">
<path d="M11 11V27H27V11H11ZM15.68 13.665H16.77C17.585 13.665 17.865 13.685 17.88 13.74C17.895 13.785 17.9 14.65 17.9 15.67L17.895 17.525L18.21 17.245C18.65 16.855 19.02 16.72 19.72 16.695C20.18 16.68 20.37 16.7 20.69 16.815C21.4 17.05 21.9 17.54 22.16 18.26C22.26 18.54 22.275 18.835 22.295 21.115L22.315 23.665H20.09V21.585C20.09 19.535 20.085 19.51 19.945 19.26C19.75 18.93 19.54 18.78 19.205 18.74C18.635 18.675 18.245 18.87 18.02 19.335C17.915 19.55 17.9 19.775 17.895 21.57C17.885 22.67 17.875 23.59 17.875 23.615C17.87 23.645 17.375 23.665 16.775 23.665H15.685V18.665L15.68 13.665Z" fill="#BBC2CF"/>
<path d="M18.355 35.897C13.7006 35.897 9.33568 34.0792 6.04386 30.7708C2.75204 27.4625 0.943359 23.0755 0.943359 18.3977C0.943359 13.7199 2.75204 9.333 6.04386 6.02462C9.33568 2.71623 13.7006 0.898438 18.355 0.898438C23.0094 0.898438 27.3743 2.71623 30.6662 6.02462C33.958 9.333 35.7667 13.7199 35.7667 18.3977C35.7667 23.0755 33.958 27.4625 30.6662 30.7708C27.3864 34.0792 23.0094 35.897 18.355 35.897ZM18.355 2.32844C9.54065 2.32844 2.36619 9.53902 2.36619 18.3977C2.36619 27.2564 9.54065 34.467 18.355 34.467C27.1693 34.467 34.3438 27.2564 34.3438 18.3977C34.3438 9.53902 27.1693 2.32844 18.355 2.32844Z" fill="#BBC2CF"/>
</svg>
