<svg width="36" height="36" viewBox="0 0 36 36" fill="none" xmlns="http://www.w3.org/2000/svg">
<path d="M24.3535 19.1423C23.9676 18.8151 23.9194 18.2455 24.2449 17.8577C25.3302 16.5731 26.4757 14.3918 27.0665 13.2042C27.1027 13.1193 27.1268 13.0345 27.1268 12.9497C27.1268 12.6346 26.8736 12.368 26.548 12.368H24.2088C23.8711 12.368 23.5576 12.5619 23.4129 12.877C23.0391 13.6526 22.3157 15.1553 21.7128 16.0642C21.2305 16.7792 20.712 17.4215 20.1091 17.8577C20.0488 17.9062 19.9764 17.9183 19.9041 17.9183C19.7112 17.9183 19.5423 17.7608 19.5423 17.5548V13.0103C19.5423 12.6588 19.253 12.368 18.9033 12.368H15.5994C15.4788 12.368 15.3582 12.4165 15.2618 12.4892C15.0447 12.671 15.0206 12.9982 15.2135 13.2163C15.6597 13.7374 15.9491 14.4039 15.9491 15.0704V18.4394C15.9491 18.5242 15.925 18.6091 15.8647 18.6697C15.732 18.8393 15.5029 18.8636 15.3341 18.7303C13.5134 17.2881 12.4764 14.4039 12.0785 13.0587C11.9579 12.6346 11.56 12.3438 11.1259 12.3438H8.9796C8.91931 12.3438 8.85902 12.3559 8.79873 12.368C8.43699 12.4649 8.23201 12.8406 8.32847 13.2042C8.81079 14.9129 9.64278 17.0337 11.5118 19.7603C13.6942 22.9597 16.4435 23.7474 17.7216 23.7474H18.6983C19.1685 23.7474 19.5423 23.3717 19.5423 22.8991V20.7904C19.5423 20.7177 19.5544 20.645 19.5906 20.5723C19.7112 20.3178 20.0005 20.2087 20.2538 20.3299C21.5681 20.9359 22.8221 22.3659 23.4612 23.1657C23.7506 23.5292 24.1967 23.7474 24.6549 23.7474H26.7771C26.9097 23.7474 27.0303 23.711 27.1388 23.6383C27.4523 23.4323 27.5368 23.0203 27.3438 22.7052C26.1622 20.8753 25.0528 19.7482 24.3535 19.1423Z" fill="#BBC2CF"/>
<path d="M17.8785 35.5757C13.2241 35.5757 8.85912 33.7579 5.5673 30.4496C2.27549 27.1412 0.466797 22.7542 0.466797 18.0764C0.466797 13.3987 2.27549 9.01171 5.5673 5.70333C8.85912 2.39494 13.2241 0.577148 17.8785 0.577148C22.5328 0.577148 26.9098 2.39494 30.2017 5.70333C33.4935 9.01171 35.3022 13.3987 35.3022 18.0764C35.3022 22.7542 33.4935 27.1412 30.2017 30.4496C26.9098 33.7579 22.5328 35.5757 17.8785 35.5757ZM17.8785 2.00715C9.0641 2.00715 1.88963 9.21773 1.88963 18.0764C1.88963 26.9352 9.0641 34.1457 17.8785 34.1457C26.6928 34.1457 33.8673 26.9352 33.8673 18.0764C33.8673 9.21773 26.6928 2.00715 17.8785 2.00715Z" fill="#BBC2CF"/>
</svg>
