<svg width="35" height="36" viewBox="0 0 35 36" fill="none" xmlns="http://www.w3.org/2000/svg">
<path d="M12.0586 9.77539V26.39L26.6608 18.2221L12.0586 9.77539Z" fill="#BBC2CF"/>
<path d="M17.4116 35.5757C12.7573 35.5757 8.39232 33.7579 5.1005 30.4496C1.80868 27.1412 0 22.7542 0 18.0764C0 13.3987 1.80868 9.01171 5.1005 5.70333C8.39232 2.39494 12.7573 0.577148 17.4116 0.577148C22.066 0.577148 26.431 2.39494 29.7228 5.70333C33.0146 9.01171 34.8233 13.3987 34.8233 18.0764C34.8233 22.7542 33.0146 27.1412 29.7228 30.4496C26.431 33.7579 22.054 35.5757 17.4116 35.5757ZM17.4116 2.00715C8.5973 2.00715 1.42284 9.21773 1.42284 18.0764C1.42284 26.9352 8.5973 34.1457 17.4116 34.1457C26.226 34.1457 33.4005 26.9352 33.4005 18.0764C33.3884 9.21773 26.226 2.00715 17.4116 2.00715Z" fill="#BBC2CF"/>
</svg>
