<svg width="36" height="36" viewBox="0 0 36 36" fill="none" xmlns="http://www.w3.org/2000/svg">
<path d="M7.62453 18.8164L12.1342 20.3433L22.6005 13.6781C22.6849 13.6175 22.8055 13.6417 22.8778 13.7144C22.9622 13.7993 22.9502 13.9447 22.8658 14.0295L14.6784 21.5431L14.2202 25.9664L14.2805 26.027C14.4131 26.1724 14.6422 26.1724 14.7869 26.0391L17.4035 23.5548L21.7203 26.7541C21.8408 26.8389 21.9855 26.9116 22.1302 26.9359C22.6969 27.0571 23.2516 26.6935 23.3722 26.1239L26.3384 11.8967C26.3746 11.7391 26.3626 11.5816 26.3023 11.4483C26.1455 11.0241 25.6753 10.8181 25.2532 10.9756L7.60041 17.6651C7.4316 17.7257 7.29896 17.8711 7.23867 18.0408C7.13015 18.368 7.31102 18.7194 7.62453 18.8164Z" fill="#BBC2CF"/>
<path d="M17.6441 35.5757C12.9897 35.5757 8.62474 33.7579 5.33293 30.4496C2.04111 27.1533 0.232422 22.7542 0.232422 18.0764C0.232422 13.3987 2.04111 9.01171 5.33293 5.70333C8.62474 2.39494 12.9897 0.577148 17.6441 0.577148C22.2984 0.577148 26.6634 2.39494 29.9552 5.70333C33.247 9.01171 35.0557 13.3987 35.0557 18.0764C35.0557 22.7542 33.247 27.1412 29.9552 30.4496C26.6755 33.7579 22.2984 35.5757 17.6441 35.5757ZM17.6441 2.00715C8.82973 2.00715 1.65526 9.21773 1.65526 18.0764C1.65526 26.9352 8.82973 34.1457 17.6441 34.1457C26.4584 34.1457 33.6329 26.9352 33.6329 18.0764C33.6329 9.21773 26.4584 2.00715 17.6441 2.00715Z" fill="#BBC2CF"/>
</svg>
