<svg width="36" height="35" viewBox="0 0 36 35" fill="none" xmlns="http://www.w3.org/2000/svg">
<path d="M18.1226 34.9996C13.4682 34.9996 9.10326 33.1818 5.81145 29.8734C2.51963 26.565 0.710938 22.1781 0.710938 17.5003C0.710938 12.8225 2.51963 8.43554 5.81145 5.12715C9.10326 1.81877 13.4682 0.000976562 18.1226 0.000976562C22.777 0.000976562 27.1419 1.81877 30.4338 5.12715C33.7256 8.43554 35.5343 12.8225 35.5343 17.5003C35.5343 22.1781 33.7256 26.565 30.4338 29.8734C27.1419 33.1818 22.7649 34.9996 18.1226 34.9996ZM18.1226 1.43097C9.30825 1.43097 2.13377 8.64156 2.13377 17.5003C2.13377 26.359 9.30825 33.5696 18.1226 33.5696C26.9369 33.5696 34.1114 26.359 34.1114 17.5003C34.1114 8.64156 26.9369 1.43097 18.1226 1.43097Z" fill="#BBC2CF"/>
<path d="M27.2507 17.0755C27.3712 17.0755 27.4798 17.027 27.5642 16.9422C27.6486 16.8573 27.6847 16.7362 27.6727 16.615C27.2507 11.9857 23.6092 8.32584 19.003 7.90169C18.8824 7.88957 18.7739 7.92592 18.6775 8.01075C18.5931 8.09558 18.5448 8.20465 18.5448 8.32584C18.6172 14.4821 19.4251 16.9907 27.2507 17.0755ZM27.2507 17.9238C19.4251 18.0086 18.6172 20.5172 18.5448 26.6734C18.5448 26.7946 18.5931 26.9037 18.6775 26.9885C18.7498 27.0612 18.8583 27.0976 18.9548 27.0976C18.9669 27.0976 18.9789 27.0976 18.991 27.0976C23.5971 26.6734 27.2386 23.0136 27.6606 18.3843C27.6727 18.2631 27.6365 18.154 27.5521 18.0571C27.4798 17.9723 27.3712 17.9359 27.2507 17.9238ZM17.2064 7.90169C12.6123 8.33796 8.98288 11.9978 8.56085 16.615C8.5488 16.7362 8.58498 16.8452 8.66939 16.9422C8.75379 17.027 8.86232 17.0755 8.97084 17.0755C16.7723 16.9907 17.5802 14.47 17.6525 8.32584C17.6525 8.20465 17.6043 8.09558 17.5199 8.01075C17.4476 7.93804 17.327 7.88957 17.2064 7.90169ZM8.99494 17.9238C8.8623 17.9117 8.76585 17.9723 8.68144 18.0571C8.59704 18.1419 8.56087 18.2631 8.57292 18.3843C8.99495 23.0015 12.6244 26.6613 17.2185 27.0976C17.2305 27.0976 17.2426 27.0976 17.2546 27.0976C17.3632 27.0976 17.4596 27.0612 17.532 26.9885C17.6164 26.9037 17.6646 26.7946 17.6646 26.6734C17.5922 20.5293 16.7844 18.0207 8.99494 17.9238Z" fill="#BBC2CF"/>
</svg>
